<svg width="669" height="135" viewBox="0 0 669 135" fill="none" xmlns="http://www.w3.org/2000/svg">
<path d="M41.4841 73.3854C47.2726 52.9804 53.4806 32.2104 60.0036 12.0154C63.0551 2.56537 79.4671 1.32035 83.5461 10.6154C86.7886 18.0054 88.9371 26.3954 91.2971 34.2454C95.1991 47.5054 99.3011 60.7004 103.602 73.8354C106.903 60.9654 111.394 47.3604 114.847 34.4154C116.102 29.7054 120.315 14.9854 122.028 11.2504C123.06 9.00036 124.758 7.12035 126.893 5.86535C129.72 4.24035 133.089 3.8504 136.211 4.7904C150.659 9.1704 140.17 29.7354 136.948 39.3304L124.352 78.5954C122.136 85.4954 120.065 92.4954 117.445 99.1954C115.194 104.82 111.699 107.78 105.667 108.42C92.8366 109.785 90.2581 100.685 87.0016 90.5954C81.8271 74.5604 77.5101 58.1704 72.1596 42.1654L59.9296 81.7304C56.2076 93.5154 53.0591 113.96 34.2846 107.72C29.7256 106.205 26.4591 99.5954 25.0926 95.1054C17.0981 68.8404 7.41911 42.8453 0.323112 16.3603C-1.26589 10.4203 3.23246 4.90234 8.9061 4.50036C14.4106 4.11036 19.2586 4.78039 21.7116 10.2854C24.8431 17.3054 26.8846 25.5054 29.0731 32.8654C32.9681 46.4454 37.1056 59.9554 41.4841 73.3854Z" fill="#341C4D"/>
<path fill-rule="evenodd" clip-rule="evenodd" d="M245.202 0.0951495C264.083 -0.49485 258.821 25.5156 258.649 39.4106C266.632 31.5606 273.459 27.5806 284.99 28.6606C320.785 32.016 328.672 81.0505 302.976 101.96C288.856 113.45 271.635 111.21 258.514 97.6147C258.285 98.9147 258.008 100.205 257.571 101.455C256.651 104.08 254.669 105.936 252.137 107.036C249.259 108.28 245.785 108.15 242.9 106.996C240.484 106.026 238.354 104.215 237.334 101.786C235.71 97.9156 236.202 21.2578 236.553 12.7856C236.648 10.4856 236.613 7.55515 237.636 5.47015C239.087 2.5152 241.926 0.197525 245.202 0.0951495ZM279.832 88.9604C302.997 83.3204 299.507 46.5257 274.58 47.5405C250.153 48.5349 255.153 93.9501 279.832 88.9604Z" fill="#341C4D"/>
<path fill-rule="evenodd" clip-rule="evenodd" d="M422.802 0.00989104C441.683 -0.580109 436.42 25.4303 436.248 39.3253C444.232 31.4753 451.059 27.4953 462.59 28.5753C498.385 31.9307 506.272 80.9652 480.575 101.875C466.456 113.365 449.235 111.124 436.114 97.5294C435.885 98.8294 435.608 100.12 435.17 101.37C434.251 103.995 432.268 105.85 429.737 106.95C426.859 108.195 423.385 108.065 420.499 106.91C418.083 105.94 415.954 104.13 414.934 101.7C413.309 97.8304 413.802 21.1726 414.153 12.7003C414.248 10.4003 414.213 7.46989 415.236 5.38489C416.687 2.42994 419.526 0.112266 422.802 0.00989104ZM457.432 88.8751C480.596 83.2351 477.107 46.4404 452.18 47.4552C427.752 48.4497 432.752 93.8649 457.432 88.8751Z" fill="#341C4D"/>
<path fill-rule="evenodd" clip-rule="evenodd" d="M538.958 28.1105C561.408 23.9707 582.948 38.8605 587.003 61.3254C591.058 83.7954 576.082 105.275 553.602 109.245C531.243 113.19 509.903 98.3155 505.868 75.9709C501.838 53.6309 516.628 32.2305 538.958 28.1105ZM549.748 88.8C574.41 86.8255 569.232 45.2302 542.418 48.0549C518.153 50.611 523.518 90.9 549.748 88.8Z" fill="#341C4D"/>
<path fill-rule="evenodd" clip-rule="evenodd" d="M183.589 28.6104C205.471 27.4254 222.029 42.7553 223.127 64.5352C223.829 78.475 207.627 75.7507 198.033 75.7256L168.453 75.6504C172.412 87.9403 180.782 93.3705 193.676 89.8955C202.22 87.5956 208.153 79.1495 214.607 85.4502C221.573 92.2502 218.019 98.2657 210.699 102.681C196.999 111.421 172.3 111.155 159.832 99.6553C133.627 75.4853 146.149 31.7305 182.946 28.6504L183.589 28.6104ZM184.231 46.0957C174.305 46.2279 170.862 52.2905 168.262 61.7705C174.309 61.8355 180.356 61.8607 186.403 61.8457L201.091 61.8955C199.094 52.9556 194.366 45.9608 184.231 46.0957Z" fill="#341C4D"/>
<path d="M364.113 82.0053C366.338 72.6153 370.913 61.7053 374.083 52.4453C376.113 46.5053 379.838 33.1904 385.218 30.0254C392.118 25.9654 403.278 32.0303 401.283 40.6153C399.668 47.5803 396.118 54.9204 393.403 61.6554L379.933 95.5804C375.968 105.605 371.198 120.59 363.698 128.245C355.938 136.17 336.398 137.42 328.393 129.1C325.268 125.855 326.408 118.26 329.963 115.615C334.538 112.08 341.153 116.449 346.583 115.415C351.653 114.45 354.153 112.447 352.798 108.21C350.978 102.52 347.198 94.3453 344.768 88.6203L332.333 58.8853C330.128 53.6103 327.718 48.4754 325.983 43.0204C323.513 35.2804 325.653 30.0254 333.198 29.0453C347.178 27.9053 348.023 39.2754 352.133 50.2804C356.043 60.8854 360.033 71.4653 364.113 82.0053Z" fill="#341C4D"/>
<path d="M598.958 29.0704C603.153 28.2365 608.293 28.5354 612.253 30.7504C616.473 33.1154 638.238 61.9004 639.323 66.9104C639.878 69.4704 638.108 72.5154 636.818 74.6054C633.073 80.6854 617.258 101.925 612.308 106.08C611.043 107.14 609.707 107.84 608.053 107.91C603.833 108.09 597.913 108.94 594.203 106.575C592.903 105.745 592.158 104.725 591.963 103.175C591.318 97.9354 612.708 73.8004 616.813 68.2304C612.358 63.5804 606.338 55.9254 602.593 50.5954C598.138 44.2504 584.168 32.0104 598.958 29.0704Z" fill="#341C4D"/>
<path d="M647.538 74.7153C647.738 74.4966 648.119 74.4503 649.138 75.7503C654.633 82.7653 683.678 107.635 659.058 108.09C657.273 108.06 654.558 108.015 652.898 107.65C646.953 106.335 638.888 95.1103 635.863 89.8503C638.528 85.0903 643.873 78.7253 647.538 74.7153Z" fill="#341C4D"/>
<path d="M652.833 29.1004C674.708 28.2404 671.353 33.8954 659.953 47.4704C656.993 50.9904 654.418 54.6103 651.188 58.0503C646.008 62.1803 643.193 56.7103 640.183 52.8603C638.648 50.8903 637.178 48.4653 635.783 46.3603C640.298 39.6953 644.866 29.4136 652.833 29.1004Z" fill="#BC96E4"/>
</svg>
