<svg width="256" height="256" viewBox="0 0 256 256" fill="none" xmlns="http://www.w3.org/2000/svg">
<path d="M128 0L192 37.3333V112L128 149.333L64 112V37.3333L128 0Z" fill="#341C4D"/>
<path d="M128 74.6667L192 112V186.667C192 214.667 169.667 237 141.667 237H114.333C86.3333 237 64 214.667 64 186.667V112L128 74.6667Z" fill="#BC96E4"/>
<path d="M64 112H128L192 74.6667V10.6667C192 9.33333 190.667 8 189.333 8H138.667C134.667 8 130.667 9.33333 128 12L21.3333 118.667C20 120 20 122.667 21.3333 124C22.6667 125.333 25.3333 125.333 26.6667 124L128 22.6667C129.333 21.3333 132 20 133.333 20H181.333V74.6667L128 128C126.667 129.333 124 129.333 122.667 128C121.333 126.667 121.333 124 122.667 122.667L177.333 68C178.667 66.6667 178.667 64 177.333 62.6667C176 61.3333 173.333 61.3333 172 62.6667L117.333 117.333C114.667 120 110.667 120 108 117.333C105.333 114.667 105.333 110.667 108 108L172 44C173.333 42.6667 173.333 40 172 38.6667C170.667 37.3333 168 37.3333 166.667 38.6667L102.667 102.667C98.6667 106.667 92 106.667 88 102.667C84 98.6667 84 92 88 88L161.333 14.6667C162.667 13.3333 162.667 10.6667 161.333 9.33333C160 8 157.333 8 156 9.33333L74.6667 90.6667C69.3333 96 60 96 54.6667 90.6667C49.3333 85.3333 49.3333 76 54.6667 70.6667L64 61.3333V112Z" fill="white"/>
</svg>
